<?xml version="1.0" standalone="no"?>
<!DOCTYPE svg PUBLIC "-//W3C//DTD SVG 20010904//EN"
 "http://www.w3.org/TR/2001/REC-SVG-20010904/DTD/svg10.dtd">
<svg version="1.0" xmlns="http://www.w3.org/2000/svg"
 width="1024.000000pt" height="1024.000000pt" viewBox="0 0 1024.000000 1024.000000"
 preserveAspectRatio="xMidYMid meet">

<g transform="translate(0.000000,1024.000000) scale(0.100000,-0.100000)"
fill="#000000" stroke="none">
<path d="M0 5120 l0 -5120 5120 0 5120 0 0 5120 0 5120 -5120 0 -5120 0 0
-5120z m4800 1155 l0 -105 -635 0 -635 0 0 -330 0 -330 635 0 635 0 0 -110 0
-110 -635 0 -635 0 0 -540 0 -540 -210 0 -210 0 0 1085 0 1085 845 0 845 0 0
-105z m1910 5 l0 -100 105 0 105 0 0 -105 0 -105 105 0 105 0 0 -670 0 -670
-105 0 -105 0 0 -210 0 -210 105 0 105 0 0 -105 0 -105 -210 0 -210 0 0 105 0
105 -530 0 -530 0 0 105 0 105 -110 0 -110 0 0 105 0 105 -100 0 -100 0 0 670
0 670 100 0 99 0 3 103 3 102 108 3 107 3 0 99 0 100 530 0 530 0 0 -100z"/>
<path d="M5860 6065 l0 -105 -105 0 -105 0 0 -665 0 -665 105 0 105 0 0 -105
0 -105 215 0 215 0 0 100 0 100 -105 0 -105 0 0 105 0 105 -105 0 -105 0 0
105 0 105 210 0 210 0 0 -100 0 -99 103 -3 102 -3 3 -102 3 -103 104 0 105 0
0 665 0 664 -107 3 -108 3 -3 103 -3 102 -314 0 -315 0 0 -105z"/>
</g>
</svg>
